# xmcd CD database file
#
# Track frame offsets:
#	150
#	18234
#	36627
#	65939
#	95401
#	119815
#	137439
#	176662
#
# Disc length: 2590 seconds
#
# Revision: 1
# Processed by: cddbd v1.5PL3 Copyright (c) Steve Scherf et al.
# Submitted via: CDex 1.51
#
DISCID=760a1c08
DTITLE=Moritz Peter QUartet - Cafe Luz
DYEAR=2004
DGENRE=Jazz
TTITLE0=Muskatnuss
TTITLE1=Valse à Tijuca
TTITLE2=Theo
TTITLE3=Cafe Luz
TTITLE4=Liquor dreams
TTITLE5=Manu's Blues
TTITLE6=Valse a Jonathan
TTITLE7=Jeri
EXTD=YEAR: 2004
EXTT0=
EXTT1=
EXTT2=
EXTT3=
EXTT4=
EXTT5=
EXTT6=
EXTT7=
PLAYORDER=
